<svg width="18" height="16" viewBox="0 0 18 16" fill="none" xmlns="http://www.w3.org/2000/svg">
<path fill-rule="evenodd" clip-rule="evenodd" d="M8.16667 0.5H9.83334C13.9755 0.5 17.3333 3.85786 17.3333 8C17.3333 12.1421 13.9755 15.5 9.83334 15.5H4.00001C2.15906 15.5 0.666672 14.0076 0.666672 12.1667V8C0.666672 3.85786 4.02454 0.5 8.16667 0.5ZM6.12263 9.2392C5.88655 8.98738 5.49103 8.97463 5.23921 9.21071C4.98739 9.44679 4.97463 9.84231 5.21071 10.0941C6.33651 11.295 7.63727 11.9583 9.00001 11.9583C10.3627 11.9583 11.6635 11.295 12.7893 10.0941C13.0254 9.84231 13.0126 9.44679 12.7608 9.21071C12.509 8.97463 12.1135 8.98738 11.8774 9.2392C10.9198 10.2606 9.92894 10.7083 9.00001 10.7083C8.07108 10.7083 7.08017 10.2606 6.12263 9.2392Z" fill="#F26333"/>
</svg>
