<svg width="20" height="20" viewBox="0 0 20 20" fill="none" xmlns="http://www.w3.org/2000/svg">
<path d="M8.36068 2.7262C9.03125 1.31352 10.9688 1.31352 11.6393 2.72619L12.7982 5.16767C13.0645 5.72864 13.5793 6.11747 14.1747 6.20742L16.7661 6.59893C18.2656 6.82546 18.8643 8.74131 17.7793 9.84092L15.9041 11.7413C15.4732 12.178 15.2766 12.8071 15.3783 13.4237L15.821 16.1071C16.0771 17.6598 14.5097 18.8439 13.1685 18.1108L10.8507 16.8439C10.3181 16.5528 9.68188 16.5528 9.14931 16.8439L6.83147 18.1108C5.49033 18.8439 3.92285 17.6598 4.17899 16.1071L4.62166 13.4237C4.72337 12.8071 4.52676 12.178 4.0959 11.7413L2.22073 9.84092C1.13572 8.74131 1.73444 6.82547 3.23389 6.59893L5.82531 6.20742C6.42074 6.11747 6.93547 5.72864 7.20176 5.16767L8.36068 2.7262Z" fill="#F26333"/>
</svg>
