<svg width="18" height="18" viewBox="0 0 18 18" fill="none" xmlns="http://www.w3.org/2000/svg">
<path d="M4.8253 5.20742L4.91867 5.82541L4.91867 5.82541L4.8253 5.20742ZM6.20175 4.16767L6.76636 4.43568L6.76636 4.43568L6.20175 4.16767ZM1.22072 8.84092L1.66561 8.40195L1.66561 8.40195L1.22072 8.84092ZM2.23387 5.59893L2.14051 4.98094L2.14051 4.98094L2.23387 5.59893ZM3.62165 12.4237L3.00498 12.322L3.00498 12.322L3.62165 12.4237ZM3.09589 10.7413L2.651 11.1803L2.651 11.1803L3.09589 10.7413ZM5.83146 17.1108L5.53169 16.5624L5.53169 16.5624L5.83146 17.1108ZM3.17898 15.1071L3.79564 15.2089L3.79564 15.2089L3.17898 15.1071ZM9.85068 15.8439L9.55091 16.3923L9.55091 16.3923L9.85068 15.8439ZM8.1493 15.8439L8.44907 16.3923L8.44907 16.3923L8.1493 15.8439ZM14.821 15.1071L15.4377 15.0054L15.4377 15.0054L14.821 15.1071ZM12.1685 17.1108L12.4683 16.5624L12.4683 16.5624L12.1685 17.1108ZM14.9041 10.7413L14.4592 10.3024L14.4592 10.3024L14.9041 10.7413ZM14.3783 12.4237L13.7617 12.5254L13.7617 12.5254L14.3783 12.4237ZM15.7661 5.59893L15.8595 4.98094L15.8595 4.98094L15.7661 5.59893ZM16.7793 8.84092L17.2241 9.2799L17.2241 9.2799L16.7793 8.84092ZM11.7982 4.16767L12.3629 3.89965L12.3629 3.89965L11.7982 4.16767ZM13.1747 5.20742L13.0813 5.82541L13.0813 5.82541L13.1747 5.20742ZM10.6393 1.72619L10.0747 1.99421L10.0747 1.99421L10.6393 1.72619ZM7.36067 1.7262L6.79605 1.45818L7.36067 1.7262ZM10.0747 1.99421L11.2336 4.43568L12.3629 3.89965L11.2039 1.45818L10.0747 1.99421ZM13.0813 5.82541L15.6727 6.21692L15.8595 4.98094L13.268 4.58944L13.0813 5.82541ZM16.3344 8.40195L14.4592 10.3024L15.349 11.1803L17.2241 9.2799L16.3344 8.40195ZM13.7617 12.5254L14.2043 15.2089L15.4377 15.0054L14.995 12.322L13.7617 12.5254ZM12.4683 16.5624L10.1504 15.2954L9.55091 16.3923L11.8688 17.6592L12.4683 16.5624ZM7.84953 15.2954L5.53169 16.5624L6.13123 17.6592L8.44907 16.3923L7.84953 15.2954ZM3.79564 15.2089L4.23831 12.5254L3.00498 12.322L2.56231 15.0054L3.79564 15.2089ZM3.54078 10.3024L1.66561 8.40195L0.775832 9.2799L2.651 11.1803L3.54078 10.3024ZM2.32724 6.21692L4.91867 5.82541L4.73194 4.58944L2.14051 4.98094L2.32724 6.21692ZM6.76636 4.43568L7.92528 1.99421L6.79605 1.45818L5.63713 3.89966L6.76636 4.43568ZM4.91867 5.82541C5.72716 5.70326 6.41429 5.1774 6.76636 4.43568L5.63713 3.89965C5.45664 4.27989 5.1143 4.53167 4.73194 4.58944L4.91867 5.82541ZM1.66561 8.40195C0.915811 7.64206 1.36571 6.36219 2.32724 6.21692L2.14051 4.98094C0.103151 5.28875 -0.644388 7.84056 0.775832 9.2799L1.66561 8.40195ZM4.23831 12.5254C4.37186 11.7159 4.1152 10.8845 3.54078 10.3024L2.651 11.1803C2.9383 11.4715 3.07486 11.8984 3.00498 12.322L4.23831 12.5254ZM5.53169 16.5624C4.69715 17.0186 3.61496 16.3042 3.79564 15.2089L2.56231 15.0054C2.23073 17.0155 4.28348 18.6692 6.13123 17.6592L5.53169 16.5624ZM10.1504 15.2954C9.43108 14.9022 8.5689 14.9022 7.84953 15.2954L8.44907 16.3923C8.79483 16.2033 9.20514 16.2033 9.55091 16.3923L10.1504 15.2954ZM14.2043 15.2089C14.385 16.3042 13.3028 17.0185 12.4683 16.5624L11.8688 17.6592C13.7165 18.6692 15.7693 17.0155 15.4377 15.0054L14.2043 15.2089ZM14.4592 10.3024C13.8848 10.8845 13.6281 11.7159 13.7617 12.5254L14.995 12.322C14.9251 11.8984 15.0617 11.4715 15.349 11.1803L14.4592 10.3024ZM15.6727 6.21692C16.6343 6.36219 17.0842 7.64206 16.3344 8.40195L17.2241 9.2799C18.6444 7.84055 17.8968 5.28874 15.8595 4.98094L15.6727 6.21692ZM11.2336 4.43568C11.5857 5.1774 12.2728 5.70326 13.0813 5.82541L13.268 4.58944C12.8857 4.53167 12.5433 4.27989 12.3629 3.89965L11.2336 4.43568ZM11.2039 1.45818C10.3074 -0.430481 7.69256 -0.430475 6.79605 1.45818L7.92528 1.99421C8.36992 1.05751 9.63006 1.05751 10.0747 1.99421L11.2039 1.45818Z" fill="#5C616F"/>
</svg>
