<svg width="20" height="20" viewBox="0 0 20 20" fill="none" xmlns="http://www.w3.org/2000/svg">
<path d="M2.5 16.875C2.15482 16.875 1.875 17.1548 1.875 17.5C1.875 17.8452 2.15482 18.125 2.5 18.125V16.875ZM17.5 18.125C17.8452 18.125 18.125 17.8452 18.125 17.5C18.125 17.1548 17.8452 16.875 17.5 16.875V18.125ZM6.09969 14.9901L6.0113 14.3713H6.0113L6.09969 14.9901ZM5.00994 13.9003L4.39122 13.8119L5.00994 13.9003ZM5.96347 9.94997L5.52153 9.50802L5.96347 9.94997ZM5.41859 11.0397L6.03731 11.1281L5.41859 11.0397ZM10.05 14.0365L10.492 14.4785L10.05 14.0365ZM8.96028 14.5814L9.04867 15.2001H9.04867L8.96028 14.5814ZM16.9358 4.42642L16.4938 4.86837V4.86837L16.9358 4.42642ZM16.9358 7.1508L16.4938 6.70886L16.9358 7.1508ZM15.5736 3.06424L16.0155 2.6223V2.62229L15.5736 3.06424ZM12.8492 3.06424L13.2911 3.50618L12.8492 3.06424ZM12.112 4.42643C12.112 4.08125 11.8322 3.80143 11.487 3.80143C11.1418 3.80143 10.862 4.08125 10.862 4.42643L12.112 4.42643ZM15.5736 9.13799C15.9187 9.13799 16.1986 8.85817 16.1986 8.51299C16.1986 8.16781 15.9187 7.88799 15.5736 7.88799V9.13799ZM2.5 18.125H17.5V16.875H2.5V18.125ZM15.1316 3.50618L16.4938 4.86837L17.3777 3.98448L16.0155 2.6223L15.1316 3.50618ZM16.4938 6.70886L9.60809 13.5946L10.492 14.4785L17.3777 7.59274L16.4938 6.70886ZM6.40541 10.3919L13.2911 3.50618L12.4073 2.62229L5.52153 9.50802L6.40541 10.3919ZM8.87189 13.9627L6.0113 14.3713L6.18808 15.6088L9.04867 15.2001L8.87189 13.9627ZM5.62866 13.9887L6.03731 11.1281L4.79988 10.9513L4.39122 13.8119L5.62866 13.9887ZM6.0113 14.3713C5.78809 14.4032 5.59677 14.2119 5.62866 13.9887L4.39122 13.8119C4.24148 14.8601 5.13991 15.7585 6.18808 15.6088L6.0113 14.3713ZM5.52153 9.50802C5.13117 9.89838 4.87795 10.4048 4.79988 10.9513L6.03731 11.1281C6.07714 10.8493 6.2063 10.591 6.40541 10.3919L5.52153 9.50802ZM9.60809 13.5946C9.40898 13.7937 9.15065 13.9229 8.87189 13.9627L9.04867 15.2001C9.59517 15.1221 10.1016 14.8688 10.492 14.4785L9.60809 13.5946ZM16.4938 4.86837C17.0021 5.3766 17.0021 6.20062 16.4938 6.70886L17.3777 7.59274C18.3741 6.59635 18.3741 4.98088 17.3777 3.98448L16.4938 4.86837ZM16.0155 2.62229C15.0191 1.6259 13.4037 1.6259 12.4073 2.62229L13.2911 3.50618C13.7994 2.99794 14.6234 2.99794 15.1316 3.50618L16.0155 2.62229ZM11.487 4.42643C10.862 4.42643 10.862 4.42674 10.862 4.42705C10.862 4.42717 10.862 4.42749 10.862 4.42771C10.862 4.42816 10.862 4.42863 10.862 4.42913C10.862 4.43011 10.862 4.43118 10.862 4.43234C10.8621 4.43465 10.8621 4.43731 10.8621 4.4403C10.8622 4.44627 10.8624 4.45359 10.8627 4.46221C10.8632 4.47944 10.8642 4.50189 10.8661 4.52919C10.8697 4.58379 10.8766 4.65797 10.8896 4.74894C10.9156 4.93077 10.9661 5.18058 11.0644 5.47544C11.2617 6.06732 11.6498 6.8353 12.4073 7.59274L13.2911 6.70886C12.6864 6.10412 12.3935 5.50991 12.2502 5.08015C12.1782 4.86419 12.1436 4.68831 12.127 4.57216C12.1187 4.51414 12.115 4.47126 12.1133 4.44604C12.1124 4.43345 12.1121 4.42529 12.112 4.42191C12.112 4.42021 12.112 4.41972 12.112 4.42046C12.112 4.42083 12.112 4.42151 12.112 4.4225C12.112 4.423 12.112 4.42357 12.112 4.42422C12.112 4.42455 12.112 4.4249 12.112 4.42527C12.112 4.42545 12.112 4.42574 12.112 4.42583C12.112 4.42613 12.112 4.42643 11.487 4.42643ZM12.4073 7.59274C13.1647 8.35019 13.9327 8.73835 14.5246 8.93564C14.8194 9.03393 15.0692 9.08445 15.2511 9.11042C15.342 9.12342 15.4162 9.13031 15.4708 9.13395C15.4981 9.13577 15.5206 9.13678 15.5378 9.13733C15.5464 9.13761 15.5537 9.13777 15.5597 9.13787C15.5627 9.13792 15.5653 9.13795 15.5677 9.13797C15.5688 9.13797 15.5699 9.13798 15.5709 9.13798C15.5714 9.13799 15.5718 9.13799 15.5723 9.13799C15.5725 9.13799 15.5728 9.13799 15.5729 9.13799C15.5733 9.13799 15.5736 9.13799 15.5736 8.51299C15.5736 7.88799 15.5739 7.88799 15.5742 7.88799C15.5743 7.88799 15.5745 7.88799 15.5747 7.88799C15.5751 7.88799 15.5754 7.88799 15.5758 7.88799C15.5764 7.888 15.577 7.888 15.5775 7.888C15.5785 7.88801 15.5792 7.88802 15.5795 7.88803C15.5803 7.88804 15.5798 7.88804 15.5781 7.88798C15.5747 7.88787 15.5666 7.88755 15.554 7.88671C15.5287 7.88503 15.4859 7.88128 15.4278 7.87299C15.3117 7.85639 15.1358 7.82178 14.9198 7.74979C14.4901 7.60654 13.8959 7.3136 13.2911 6.70886L12.4073 7.59274Z" fill="#5C616F"/>
</svg>
