<svg width="20" height="20" viewBox="0 0 20 20" fill="none" xmlns="http://www.w3.org/2000/svg">
<path d="M7.16667 11.2917C6.95957 11.0155 6.56781 10.9596 6.29167 11.1667C6.01553 11.3738 5.95957 11.7655 6.16667 12.0417L7.16667 11.2917ZM13.8333 12.0417C14.0404 11.7655 13.9845 11.3738 13.7083 11.1667C13.4322 10.9596 13.0404 11.0155 12.8333 11.2917L13.8333 12.0417ZM9.16667 3.125H10.8333V1.875H9.16667V3.125ZM2.29167 14.1667V10H1.04167V14.1667H2.29167ZM10.8333 16.875H5.00001V18.125H10.8333V16.875ZM1.04167 14.1667C1.04167 16.3528 2.81388 18.125 5.00001 18.125V16.875C3.50423 16.875 2.29167 15.6624 2.29167 14.1667H1.04167ZM17.7083 10C17.7083 13.797 14.6303 16.875 10.8333 16.875V18.125C15.3207 18.125 18.9583 14.4873 18.9583 10H17.7083ZM10.8333 3.125C14.6303 3.125 17.7083 6.20304 17.7083 10H18.9583C18.9583 5.51269 15.3207 1.875 10.8333 1.875V3.125ZM9.16667 1.875C4.67936 1.875 1.04167 5.51269 1.04167 10H2.29167C2.29167 6.20304 5.36971 3.125 9.16667 3.125V1.875ZM6.66667 11.6667C6.16667 12.0417 6.16682 12.0419 6.16698 12.0421C6.16704 12.0422 6.1672 12.0424 6.16732 12.0425C6.16755 12.0428 6.16781 12.0432 6.16808 12.0435C6.16863 12.0443 6.16926 12.0451 6.16997 12.046C6.17138 12.0479 6.17311 12.0502 6.17515 12.0528C6.17924 12.0581 6.18459 12.065 6.19119 12.0733C6.20438 12.09 6.22259 12.1125 6.24572 12.1401C6.29193 12.1951 6.35805 12.2706 6.44329 12.3595C6.61328 12.5369 6.86231 12.7712 7.18448 13.0055C7.82642 13.4723 8.78613 13.9583 10 13.9583V12.7083C9.13055 12.7083 8.42359 12.361 7.9197 11.9945C7.66895 11.8122 7.47528 11.6298 7.34578 11.4946C7.28129 11.4273 7.23347 11.3726 7.20319 11.3365C7.18807 11.3185 7.17738 11.3052 7.17125 11.2974C7.16818 11.2936 7.16626 11.2911 7.16549 11.2901C7.1651 11.2896 7.16501 11.2895 7.16521 11.2897C7.1653 11.2899 7.16548 11.2901 7.16572 11.2904C7.16584 11.2906 7.16598 11.2907 7.16614 11.291C7.16622 11.2911 7.16635 11.2912 7.16639 11.2913C7.16653 11.2915 7.16667 11.2917 6.66667 11.6667ZM10 13.9583C11.2139 13.9583 12.1736 13.4723 12.8155 13.0055C13.1377 12.7712 13.3867 12.5369 13.5567 12.3595C13.642 12.2706 13.7081 12.1951 13.7543 12.1401C13.7774 12.1125 13.7956 12.09 13.8088 12.0733C13.8154 12.065 13.8208 12.0581 13.8249 12.0528C13.8269 12.0502 13.8286 12.0479 13.83 12.046C13.8308 12.0451 13.8314 12.0443 13.8319 12.0435C13.8322 12.0432 13.8325 12.0428 13.8327 12.0425C13.8328 12.0424 13.833 12.0422 13.833 12.0421C13.8332 12.0419 13.8333 12.0417 13.3333 11.6667C12.8333 11.2917 12.8335 11.2915 12.8336 11.2913C12.8337 11.2912 12.8338 11.2911 12.8339 11.291C12.834 11.2907 12.8342 11.2906 12.8343 11.2904C12.8345 11.2901 12.8347 11.2899 12.8348 11.2897C12.835 11.2895 12.8349 11.2896 12.8345 11.2901C12.8338 11.2911 12.8318 11.2936 12.8288 11.2974C12.8226 11.3052 12.8119 11.3185 12.7968 11.3365C12.7665 11.3726 12.7187 11.4273 12.6542 11.4946C12.5247 11.6298 12.3311 11.8122 12.0803 11.9945C11.5764 12.361 10.8695 12.7083 10 12.7083V13.9583Z" fill="#5C616F"/>
</svg>
